<?xml version="1.0" encoding="UTF-8"?>
<svg version="1.1" xmlns="http://www.w3.org/2000/svg" width="230" height="69">
<path d="M0 0 C2.5 1.5 2.5 1.5 4 3 C4 3.66 4 4.32 4 5 C4.99 5.33 5.98 5.66 7 6 C5.32186231 10.35131858 2.09030237 13.2155061 -1.14453125 16.4453125 C-1.75133224 17.05639862 -2.35813324 17.66748474 -2.98332214 18.29708862 C-4.26603318 19.58553317 -5.55136045 20.87137772 -6.83911133 22.15478516 C-8.80376369 24.11627774 -10.75472323 26.09070929 -12.70507812 28.06640625 C-13.95491764 29.31851891 -15.2055431 30.56984765 -16.45703125 31.8203125 C-17.03741653 32.40990753 -17.61780182 32.99950256 -18.21577454 33.60696411 C-22.45289879 37.79642741 -25.55951222 39.8759074 -31.6875 40.1875 C-37.83981194 39.21425291 -41.80240413 34.23763653 -46 30 C-46.73863281 29.27425781 -47.47726563 28.54851563 -48.23828125 27.80078125 C-50.17687917 25.88408839 -52.09149701 23.94658841 -54 22 C-54.9987842 20.99878567 -55.99859846 19.99859649 -57 19 C-57.66 18.34 -58.32 17.68 -59 17 C-57.48537185 12.910504 -54.7313418 10.14353678 -51 8 C-47.22834521 6.80678557 -43.78817172 6.36888057 -40.0078125 7.703125 C-36.49463607 9.60295431 -33.64817517 12.03404381 -31 15 C-27.93286756 13.63757574 -25.88159707 12.10300295 -23.5625 9.6875 C-22.65177734 8.75744141 -22.65177734 8.75744141 -21.72265625 7.80859375 C-20.29411019 6.30878235 -18.89329001 4.78261901 -17.5 3.25 C-11.76095009 -1.91514492 -6.95373857 -2.865966 0 0 Z " fill="#091C55" transform="translate(68,27)"/>
<path d="M0 0 C4.73577157 4.74524311 6.55363461 10.97632521 8.82421875 17.13867188 C11.01727002 22.70867261 12.78112237 25.07832064 18 28 C18 28.66 18 29.32 18 30 C14.62965931 30.41269478 12.03716803 30.61607781 9.046875 28.83984375 C5.55108166 25.96829922 3.18970886 23.4944557 2 19 C0.02 19 -1.96 19 -4 19 C-4.66 20.98 -5.32 22.96 -6 25 C-3.69 25.66 -1.38 26.32 1 27 C0.67 27.99 0.34 28.98 0 30 C-4.37205665 31.18409868 -6.980252 31.43290611 -11 29.1875 C-15.910963 25.81121294 -18.89665496 20.99444593 -22 16 C-22 18.64 -22 21.28 -22 24 C-24.97 24 -27.94 24 -31 24 C-30.67 16.41 -30.34 8.82 -30 1 C-17.500677 0.58793441 -17.500677 0.58793441 -13 4 C-11.85119552 6.98689164 -11.73192563 8.33874989 -12.9375 11.3125 C-13.4634375 12.1478125 -13.4634375 12.1478125 -14 13 C-14.66 13 -15.32 13 -16 13 C-15.21366078 14.14949588 -14.42073742 15.29448989 -13.625 16.4375 C-13.18414062 17.07558594 -12.74328125 17.71367188 -12.2890625 18.37109375 C-11.07839147 20.13740928 -11.07839147 20.13740928 -9 21 C-8.80664062 20.39671875 -8.61328125 19.7934375 -8.4140625 19.171875 C-8.15367187 18.37265625 -7.89328125 17.5734375 -7.625 16.75 C-7.24214844 15.56664062 -7.24214844 15.56664062 -6.8515625 14.359375 C-6 12 -6 12 -4.875 9.875 C-3.67601902 7.30575504 -4.25902557 5.66750795 -5 3 C-5.99 3 -6.98 3 -8 3 C-8 2.01 -8 1.02 -8 0 C-4.99733781 -1.5013311 -3.18669322 -0.8922741 0 0 Z M-23 4 C-23 6.64 -23 9.28 -23 12 C-21.68 11.67 -20.36 11.34 -19 11 C-19 9.02 -19 7.04 -19 5 C-20.32 4.67 -21.64 4.34 -23 4 Z M-2 12 C-2.33 12.99 -2.66 13.98 -3 15 C-1.68 14.67 -0.36 14.34 1 14 C0.67 13.34 0.34 12.68 0 12 C-0.66 12 -1.32 12 -2 12 Z " fill="#F2F2F2" transform="translate(203,31)"/>
<path d="M0 0 C7.32154788 4.38754524 7.32154788 4.38754524 8.9375 8.0234375 C9.65660677 12.77500378 9.38220016 16.1175668 7.25 20.4609375 C4.8442882 23.12672625 3.29048548 23.93598275 -0.0625 25.0234375 C-0.3925 25.6834375 -0.7225 26.3434375 -1.0625 27.0234375 C-9.78762369 27.46708786 -9.78762369 27.46708786 -14.0625 24.0234375 C-17.89401494 20.4047845 -18.76084785 17.25928102 -19.08984375 12.1640625 C-19.04300968 8.49762352 -18.29762462 6.26561998 -15.6953125 3.6484375 C-11.00261417 -0.46059189 -6.03704863 -2.85845105 0 0 Z " fill="#2B53AB" transform="translate(43.0625,3.9765625)"/>
<path d="M0 0 C0 0.66 0 1.32 0 2 C-1.65532623 3.01866229 -3.32260138 4.01810813 -5 5 C-5.33 5.66 -5.66 6.32 -6 7 C-2.04 7 1.92 7 6 7 C6 14.59 6 22.18 6 30 C3.03 30 0.06 30 -3 30 C-2.67 23.4 -2.34 16.8 -2 10 C-4.2236068 11.9254644 -4.2236068 11.9254644 -5 15 C-6.32 14.34 -7.64 13.68 -9 13 C-9.47050781 14.14339844 -9.94101563 15.28679688 -10.42578125 16.46484375 C-11.05411729 17.95596957 -11.6830548 19.44684205 -12.3125 20.9375 C-12.62123047 21.69224609 -12.92996094 22.44699219 -13.24804688 23.22460938 C-13.55419922 23.94326172 -13.86035156 24.66191406 -14.17578125 25.40234375 C-14.45333252 26.06741943 -14.73088379 26.73249512 -15.0168457 27.41772461 C-16 29 -16 29 -19 30 C-20.18646321 27.62707357 -21.37227933 25.25385751 -22.5546875 22.87890625 C-23.50571953 20.98455325 -24.46897216 19.09627798 -25.4453125 17.21484375 C-25.89648438 16.33957031 -26.34765625 15.46429688 -26.8125 14.5625 C-27.23144531 13.75941406 -27.65039062 12.95632812 -28.08203125 12.12890625 C-29 10 -29 10 -29 7 C-26.03 7 -23.06 7 -20 7 C-19.87625 7.886875 -19.7525 8.77375 -19.625 9.6875 C-19.05587264 12.70387502 -18.23385564 15.20326054 -17 18 C-14.07949691 15.07949691 -12.99273372 11.50518845 -11.4140625 7.7265625 C-8.6721444 2.43965965 -5.98052846 0 0 0 Z " fill="#E4E5E6" transform="translate(115,25)"/>
<path d="M0 0 C3.31772256 2.37194645 6.17365172 5.06674493 9 8 C7.42026316 11.8288537 4.97939543 14.28773759 2.0625 17.1875 C1.18722656 18.06792969 0.31195312 18.94835937 -0.58984375 19.85546875 C-3 22 -3 22 -6 23 C-10.66666667 18.33333333 -15.33333333 13.66666667 -20 9 C-18.43989422 4.78771439 -15.5154607 2.65453155 -12 0 C-7.73454631 -1.4218179 -4.30008728 -1.35933902 0 0 Z " fill="#1843A2" transform="translate(29,35)"/>
<path d="M0 0 C4.14613048 1.79037453 6.20962547 3.85386952 8 8 C8.40359922 11.76692609 8.31158806 14.23834029 6.875 17.75 C3.94427879 21.26686545 1.13857882 22.7498137 -3.4375 23.28515625 C-8.44075655 23.45639866 -11.98537059 23.28469679 -16 20 C-16.5775 19.608125 -17.155 19.21625 -17.75 18.8125 C-19.81893001 15.81255149 -20.12090135 12.55315644 -20 9 C-18.49717203 4.94236447 -17.61841259 3.41227506 -14 1 C-12.66666667 1.33333333 -11.33333333 1.66666667 -10 2 C-6.27420911 -0.48386059 -4.41288598 -0.3804212 0 0 Z M-9 5 C-9 6.32 -9 7.64 -9 9 C-9.66 9 -10.32 9 -11 9 C-11 7.35 -11 5.7 -11 4 C-13.38224928 6.38224928 -13.32017149 7.0502037 -13.375 10.3125 C-13.28471695 13.60517609 -12.97678512 15.04550117 -11.4375 18.0625 C-9.04204492 20.29309697 -9.04204492 20.29309697 -5.4375 20.5625 C-2.04453582 20.30595944 -2.04453582 20.30595944 -0.125 18.4375 C1.37313053 15.19155052 1.87447813 12.57737326 2 9 C0.86349056 6.62366207 -0.14441029 4.85558971 -2 3 C-5.961168 2.60909667 -5.961168 2.60909667 -9 5 Z " fill="#EBEBEC" transform="translate(163,32)"/>
<path d="M0 0 C-1.93254772 2.0245738 -3.63158688 3.42105792 -6 5 C-7.31418622 7.24367181 -7.31418622 7.24367181 -8.4453125 9.90234375 C-8.88230469 10.87494141 -9.31929687 11.84753906 -9.76953125 12.84960938 C-10.44048828 14.37811523 -10.44048828 14.37811523 -11.125 15.9375 C-11.58003906 16.95263672 -12.03507812 17.96777344 -12.50390625 19.01367188 C-14.93312469 24.43546255 -14.93312469 24.43546255 -17 30 C-17.99 30 -18.98 30 -20 30 C-21.33934716 27.04435292 -22.67044247 24.0850622 -24 21.125 C-24.3815625 20.28324219 -24.763125 19.44148438 -25.15625 18.57421875 C-25.5171875 17.76855469 -25.878125 16.96289062 -26.25 16.1328125 C-26.58515625 15.38918457 -26.9203125 14.64555664 -27.265625 13.87939453 C-28 12 -28 12 -28 10 C-28.66 10 -29.32 10 -30 10 C-30 9.01 -30 8.02 -30 7 C-27.03 7 -24.06 7 -21 7 C-20.54427083 8.953125 -20.08854167 10.90625 -19.6328125 12.859375 C-18.97942104 15.06961277 -18.08693753 16.97226779 -17 19 C-16.61328125 18.03578125 -16.2265625 17.0715625 -15.828125 16.078125 C-15.3026072 14.8018675 -14.77653619 13.52583769 -14.25 12.25 C-13.99734375 11.61578125 -13.7446875 10.9815625 -13.484375 10.328125 C-10.59374791 3.39062 -7.61707311 -0.20044929 0 0 Z " fill="#F2F2F2" transform="translate(152,25)"/>
<path d="M0 0 C1.32 0.33 2.64 0.66 4 1 C4.103125 1.639375 4.20625 2.27875 4.3125 2.9375 C4.539375 3.618125 4.76625 4.29875 5 5 C5.99 5.33 6.98 5.66 8 6 C9.53816095 9.29605917 10.86242493 12.60406455 12.13085938 16.00976562 C14.2220704 21.21635707 16.16997304 23.1864582 21 26 C21 26.66 21 27.32 21 28 C16.56827991 28.5426596 13.74227171 28.28361078 10.1875 25.625 C6.10465362 21.81678454 5.52057736 17.37575802 5 12 C4.34 12 3.68 12 3 12 C2.86722656 11.30132812 2.73445312 10.60265625 2.59765625 9.8828125 C2.42105469 8.97273438 2.24445313 8.06265625 2.0625 7.125 C1.88847656 6.22007813 1.71445313 5.31515625 1.53515625 4.3828125 C1.10036299 2.00043683 1.10036299 2.00043683 0 0 Z " fill="#F0F0F0" transform="translate(200,33)"/>
<path d="M0 0 C2.97 0 5.94 0 9 0 C9.12375 0.804375 9.2475 1.60875 9.375 2.4375 C9.85613864 5.17999025 10.36564888 7.90082735 10.9375 10.625 C11.09089844 11.35976563 11.24429688 12.09453125 11.40234375 12.8515625 C11.934697 15.05790548 11.934697 15.05790548 13.12109375 17.1328125 C13.41113281 17.74898437 13.70117188 18.36515625 14 19 C13.125 21.25 13.125 21.25 12 23 C11.34 23 10.68 23 10 23 C8.81353679 20.62707357 7.62772067 18.25385751 6.4453125 15.87890625 C5.49428047 13.98455325 4.53102784 12.09627798 3.5546875 10.21484375 C3.10351562 9.33957031 2.65234375 8.46429688 2.1875 7.5625 C1.76855469 6.75941406 1.34960938 5.95632812 0.91796875 5.12890625 C0 3 0 3 0 0 Z " fill="#F3F3F3" transform="translate(86,32)"/>
<path d="M0 0 C7.33576642 0.48905109 7.33576642 0.48905109 10.4375 2.875 C13.31575188 6.78942255 13.3264825 10.26600381 13 15 C11.84360194 17.31279611 10.82590172 19.17409828 9 21 C7.33382885 21.04063832 5.66611905 21.042721 4 21 C4.350625 19.824375 4.70125 18.64875 5.0625 17.4375 C6.06986508 13.3058432 6.17750489 10.16051726 5 6 C2.56272118 3.14445983 2.56272118 3.14445983 0 1 C0 0.67 0 0.34 0 0 Z " fill="#F4F4F4" transform="translate(158,32)"/>
<path d="M0 0 C4 4.10526316 4 4.10526316 4 7 C3.34 7 2.68 7 2 7 C1.34 5.68 0.68 4.36 0 3 C-0.33 3.33 -0.66 3.66 -1 4 C-0.8981629 5.91424457 -0.8981629 5.91424457 -0.5625 8.0625 C-0.376875 9.361875 -0.19125 10.66125 0 12 C-0.66 12 -1.32 12 -2 12 C-2 12.66 -2 13.32 -2 14 C-0.68 14 0.64 14 2 14 C2.66 15.65 3.32 17.3 4 19 C1.36 19 -1.28 19 -4 19 C-4.33 20.65 -4.66 22.3 -5 24 C-5.99 23.67 -6.98 23.34 -8 23 C-7.67 22.01 -7.34 21.02 -7 20 C-7.66 19.67 -8.32 19.34 -9 19 C-8.62746094 18.26394531 -8.25492188 17.52789062 -7.87109375 16.76953125 C-7.39800781 15.79371094 -6.92492187 14.81789063 -6.4375 13.8125 C-5.96183594 12.84957031 -5.48617187 11.88664062 -4.99609375 10.89453125 C-3.9046115 7.72281223 -4.03432548 6.16301775 -5 3 C-5.99 3 -6.98 3 -8 3 C-8 2.01 -8 1.02 -8 0 C-4.99733781 -1.5013311 -3.18669322 -0.8922741 0 0 Z " fill="#EBEBEB" transform="translate(203,31)"/>
<path d="M0 0 C-1.93254772 2.0245738 -3.63158688 3.42105792 -6 5 C-7.29814468 7.24403451 -7.29814468 7.24403451 -8.41015625 9.90234375 C-9.05887695 11.36124023 -9.05887695 11.36124023 -9.72070312 12.84960938 C-10.16349609 13.86861328 -10.60628906 14.88761719 -11.0625 15.9375 C-11.94695027 17.94761424 -12.83357654 19.95677283 -13.72265625 21.96484375 C-14.11203369 22.8580835 -14.50141113 23.75132324 -14.90258789 24.67163086 C-16 27 -16 27 -18 30 C-19 27 -19 27 -18.5 25.0625 C-17.92297519 22.68227266 -18.25977147 21.30293321 -19 19 C-18.34 19 -17.68 19 -17 19 C-16.61328125 18.03578125 -16.2265625 17.0715625 -15.828125 16.078125 C-15.3026072 14.8018675 -14.77653619 13.52583769 -14.25 12.25 C-13.99734375 11.61578125 -13.7446875 10.9815625 -13.484375 10.328125 C-10.59374791 3.39062 -7.61707311 -0.20044929 0 0 Z " fill="#E0E0E1" transform="translate(152,25)"/>
<path d="M0 0 C0.66 0 1.32 0 2 0 C2 5.94 2 11.88 2 18 C2.99 18 3.98 18 5 18 C5 12.06 5 6.12 5 0 C5.66 0 6.32 0 7 0 C7 2.64 7 5.28 7 8 C7.66 8 8.32 8 9 8 C9 8.99 9 9.98 9 11 C8.34 11 7.68 11 7 11 C7.33 13.97 7.66 16.94 8 20 C5.03 20 2.06 20 -1 20 C-0.67 13.4 -0.34 6.8 0 0 Z " fill="#CFCFD0" transform="translate(173,35)"/>
<path d="M0 0 C2.475 0.495 2.475 0.495 5 1 C5 7.6 5 14.2 5 21 C4.01 21 3.02 21 2 21 C2 15.06 2 9.12 2 3 C1.34 3 0.68 3 0 3 C0 2.01 0 1.02 0 0 Z " fill="#F9F9F9" transform="translate(173,32)"/>
<path d="M0 0 C4 4.10526316 4 4.10526316 4 7 C3.34 7 2.68 7 2 7 C1.34 5.68 0.68 4.36 0 3 C-0.33 3.33 -0.66 3.66 -1 4 C-0.8981629 5.91424457 -0.8981629 5.91424457 -0.5625 8.0625 C-0.376875 9.361875 -0.19125 10.66125 0 12 C-0.66 12 -1.32 12 -2 12 C-2.33 12.66 -2.66 13.32 -3 14 C-3.33 10.7 -3.66 7.4 -4 4 C-5.32 3.67 -6.64 3.34 -8 3 C-8 2.01 -8 1.02 -8 0 C-4.99733781 -1.5013311 -3.18669322 -0.8922741 0 0 Z " fill="#D7D8D8" transform="translate(203,31)"/>
<path d="M0 0 C0.99 0 1.98 0 3 0 C3 6.27 3 12.54 3 19 C2.01 19 1.02 19 0 19 C0 12.73 0 6.46 0 0 Z " fill="#FAFAFA" transform="translate(115,34)"/>
<path d="M0 0 C0.33 0 0.66 0 1 0 C1.33 6.93 1.66 13.86 2 21 C-0.97 21 -3.94 21 -7 21 C-7 20.34 -7 19.68 -7 19 C-4 18 -4 18 -1 19 C-1.01160156 17.71222656 -1.02320312 16.42445312 -1.03515625 15.09765625 C-1.0445327 13.41927228 -1.05363305 11.74088674 -1.0625 10.0625 C-1.07087891 9.21236328 -1.07925781 8.36222656 -1.08789062 7.48632812 C-1.09111328 6.67744141 -1.09433594 5.86855469 -1.09765625 5.03515625 C-1.10289307 4.2862915 -1.10812988 3.53742676 -1.11352539 2.76586914 C-1 1 -1 1 0 0 Z " fill="#E2E2E2" transform="translate(119,34)"/>
<path d="M0 0 C0.515625 0.495 1.03125 0.99 1.5625 1.5 C4.86721204 3.53366895 7.18453778 3.3468602 11 3 C11.99 2.34 12.98 1.68 14 1 C13.67 1.99 13.34 2.98 13 4 C13.66 4.66 14.32 5.32 15 6 C12.03650719 6.98783094 10.0287337 7.13410525 6.9375 7.125 C5.62072266 7.12886719 5.62072266 7.12886719 4.27734375 7.1328125 C2 7 2 7 0 6 C0 4.02 0 2.04 0 0 Z " fill="#D9D9DA" transform="translate(150,48)"/>
<path d="M0 0 C1.65 0.99 3.3 1.98 5 3 C4.67 4.98 4.34 6.96 4 9 C0.25 10.125 0.25 10.125 -2 9 C-1.125 1.125 -1.125 1.125 0 0 Z " fill="#F6F6F6" transform="translate(186,34)"/>
<path d="M0 0 C5.50366792 -0.32374517 9.43672206 -0.53286034 14 3 C13.67 3.66 13.34 4.32 13 5 C12.01 4.34 11.02 3.68 10 3 C9.67 5.64 9.34 8.28 9 11 C8.01 10.67 7.02 10.34 6 10 C6.66 10 7.32 10 8 10 C8 8.02 8 6.04 8 4 C5.03 3.505 5.03 3.505 2 3 C2 2.34 2 1.68 2 1 C1.34 0.67 0.68 0.34 0 0 Z " fill="#E9EAEA" transform="translate(176,32)"/>
<path d="M0 0 C0.99 0.33 1.98 0.66 3 1 C3 1.66 3 2.32 3 3 C2.360625 3.2475 1.72125 3.495 1.0625 3.75 C-1.18741541 4.81562433 -1.18741541 4.81562433 -1.75 7.125 C-1.8325 7.74375 -1.915 8.3625 -2 9 C-2.66 9 -3.32 9 -4 9 C-4.66 7.68 -5.32 6.36 -6 5 C-7.32 5 -8.64 5 -10 5 C-9.67 4.01 -9.34 3.02 -9 2 C-4.25 1 -4.25 1 -2 1 C-1.34 0.67 -0.68 0.34 0 0 Z " fill="#D8D9DB" transform="translate(156,32)"/>
<path d="M0 0 C7.38461538 0.49230769 7.38461538 0.49230769 10.5 3.0625 C10.995 3.701875 11.49 4.34125 12 5 C11.67 5.66 11.34 6.32 11 7 C9.68 6.01 8.36 5.02 7 4 C7.33 5.32 7.66 6.64 8 8 C7.01 8.495 7.01 8.495 6 9 C5.566875 8.236875 5.13375 7.47375 4.6875 6.6875 C3.25870276 4.4120081 1.92127211 2.82978296 0 1 C0 0.67 0 0.34 0 0 Z " fill="#E7E8E8" transform="translate(158,32)"/>
<path d="M0 0 C0.66 0.33 1.32 0.66 2 1 C1.34 1.61875 0.68 2.2375 0 2.875 C-2.72313461 7.12989783 -2.8926333 11.05432899 -2 16 C-0.56936502 18.27237758 -0.56936502 18.27237758 1 20 C0.67 20.66 0.34 21.32 0 22 C-3.74082319 18.25917681 -4.68243054 15.26016233 -5.0390625 10.1484375 C-4.96982671 6.34046902 -3.88442118 3.98646978 -1.375 1.1875 C-0.92125 0.795625 -0.4675 0.40375 0 0 Z " fill="#D7DBE4" transform="translate(29,6)"/>
<path d="M0 0 C0.33 0 0.66 0 1 0 C1.99250545 5.70690634 2.10477512 11.21408489 2 17 C1.01 17 0.02 17 -1 17 C-0.67 11.39 -0.34 5.78 0 0 Z " fill="#8C92A0" transform="translate(113,35)"/>
<path d="M0 0 C2 3 2 3 1.5390625 5.69921875 C1.23742187 6.68535156 0.93578125 7.67148437 0.625 8.6875 C0.32851562 9.68136719 0.03203125 10.67523438 -0.2734375 11.69921875 C-0.51320312 12.45847656 -0.75296875 13.21773437 -1 14 C-1.66 13.67 -2.32 13.34 -3 13 C-2.814375 12.0925 -2.62875 11.185 -2.4375 10.25 C-2.04265379 7.31685676 -2.05308428 5.7355343 -3 3 C-2.34 3 -1.68 3 -1 3 C-0.67 2.01 -0.34 1.02 0 0 Z " fill="#E7E7E7" transform="translate(136,41)"/>
<path d="M0 0 C1.43396751 2.86793501 0.55024337 4.88195423 0 8 C-0.03622333 9.66627298 -0.04899842 11.33405374 0 13 C-0.99 12.67 -1.98 12.34 -3 12 C-2.67 11.01 -2.34 10.02 -2 9 C-2.66 8.67 -3.32 8.34 -4 8 C-2.68 5.36 -1.36 2.72 0 0 Z " fill="#DDDDDE" transform="translate(198,42)"/>
<path d="M0 0 C2.97 0.495 2.97 0.495 6 1 C6 1.99 6 2.98 6 4 C5.34 4 4.68 4 4 4 C4 4.66 4 5.32 4 6 C2.68 5.34 1.36 4.68 0 4 C0 2.68 0 1.36 0 0 Z " fill="#F5F5F5" transform="translate(111,8)"/>
<path d="M0 0 C2.31 0 4.62 0 7 0 C7 0.66 7 1.32 7 2 C4 3 4 3 1 2 C1 4.64 1 7.28 1 10 C0.67 10 0.34 10 0 10 C-1.125 2.25 -1.125 2.25 0 0 Z " fill="#D5D6D6" transform="translate(114,32)"/>
<path d="M0 0 C2.97 0.495 2.97 0.495 6 1 C6.33 2.98 6.66 4.96 7 7 C6.01 7 5.02 7 4 7 C0 2.65714286 0 2.65714286 0 0 Z " fill="#ECECEC" transform="translate(190,50)"/>
<path d="M0 0 C0.33 0.99 0.66 1.98 1 3 C-1.97 3 -4.94 3 -8 3 C-8 2.34 -8 1.68 -8 1 C-5.29120665 -0.35439668 -2.99066732 -0.06501451 0 0 Z " fill="#E7E8E8" transform="translate(180,52)"/>
<path d="M0 0 C0 0.66 0 1.32 0 2 C-1.96466413 3.06775224 -3.96855359 4.06553465 -6 5 C-6.66 4.67 -7.32 4.34 -8 4 C-8 3.34 -8 2.68 -8 2 C-4.91190305 0.23537317 -3.76687864 0 0 0 Z " fill="#CFD0D0" transform="translate(115,25)"/>
<path d="M0 0 C-1.97420135 2.52259061 -2.96745642 2.9929808 -6.1875 3.6875 C-7.5796875 3.8421875 -7.5796875 3.8421875 -9 4 C-9 3.34 -9 2.68 -9 2 C-5.86501708 0.14223235 -3.62528568 -0.20140476 0 0 Z " fill="#C6C8CA" transform="translate(152,25)"/>
<path d="M0 0 C1.125 1.75 1.125 1.75 2 4 C1.125 6.25 1.125 6.25 0 8 C-0.99 7.67 -1.98 7.34 -3 7 C-2.01 4.69 -1.02 2.38 0 0 Z " fill="#ECEDED" transform="translate(141,33)"/>
<path d="M0 0 C1.65 0.99 3.3 1.98 5 3 C4.67 3.66 4.34 4.32 4 5 C3.34 4.67 2.68 4.34 2 4 C1.34 5.32 0.68 6.64 0 8 C-1.125 2.25 -1.125 2.25 0 0 Z " fill="#D6D8D8" transform="translate(104,32)"/>
<path d="M0 0 C0.66 0 1.32 0 2 0 C2 1.98 2 3.96 2 6 C1.34 6 0.68 6 0 6 C-0.33 6.66 -0.66 7.32 -1 8 C-1.125 2.25 -1.125 2.25 0 0 Z " fill="#E8E8E8" transform="translate(102,36)"/>
<path d="M0 0 C0.33 0.99 0.66 1.98 1 3 C1.66 3 2.32 3 3 3 C3 4.32 3 5.64 3 7 C2.34 7 1.68 7 1 7 C0.67 7.66 0.34 8.32 0 9 C-1.125 3.375 -1.125 3.375 0 0 Z " fill="#DDDEDE" transform="translate(200,36)"/>
<path d="M0 0 C1 3 1 3 -0.25 5.625 C-2 8 -2 8 -5 9 C-4.67 8.01 -4.34 7.02 -4 6 C-3.34 5.67 -2.68 5.34 -2 5 C-1.27840576 3.35636866 -0.60648579 1.68949614 0 0 Z " fill="#D5D6D8" transform="translate(170,44)"/>
</svg>
